<svg width="41" height="40" viewBox="0 0 41 40" fill="none" xmlns="http://www.w3.org/2000/svg">
<path d="M30.235 21.7483C29.7823 21.1533 29.9118 20.8886 30.235 20.3567C30.2408 20.3506 33.9778 14.9762 34.3628 13.1536L34.3651 13.1524C34.5565 12.4881 34.3651 12 33.4399 12H30.3785C29.5991 12 29.2398 12.4189 29.0473 12.8876C29.0473 12.8876 27.4885 16.7709 25.2835 19.2881C24.5718 20.0155 24.2428 20.2486 23.8542 20.2486C23.6629 20.2486 23.3654 20.0155 23.3654 19.3513V13.1524C23.3654 12.3558 23.1472 12 22.502 12H17.6882C17.1994 12 16.9088 12.3716 16.9088 12.7176C16.9088 13.4729 18.0114 13.6466 18.1257 15.7716V20.3822C18.1257 21.3925 17.9495 21.5783 17.5587 21.5783C16.518 21.5783 13.9921 17.6792 12.4952 13.2167C12.193 12.3509 11.8978 12.0012 11.1126 12.0012H8.05004C7.17617 12.0012 7 12.4201 7 12.8889C7 13.717 8.0407 17.8346 11.8395 23.2746C14.3713 26.9879 17.9367 29 21.1802 29C23.1297 29 23.3677 28.5531 23.3677 27.7845C23.3677 24.2364 23.1916 23.9012 24.1681 23.9012C24.6208 23.9012 25.4001 24.1344 27.2202 25.9254C29.3004 28.0492 29.6423 29 30.8067 29H33.8681C34.7408 29 35.183 28.5531 34.9286 27.6716C34.3464 25.8174 30.4123 22.0033 30.235 21.7483Z" fill="#070707"/>
<rect x="1.5" y="1.5" width="38" height="37" rx="5.5" stroke="#070707" stroke-width="3"/>
</svg>
