<svg width="34" height="20" viewBox="0 0 34 20" fill="none" xmlns="http://www.w3.org/2000/svg">
<path d="M6.92307 13.4499C8.1767 15.1485 9.61718 16.6506 11.4781 17.7133C13.5854 18.9178 15.8543 19.2811 18.2472 19.1703C19.3651 19.1168 19.7013 18.8252 19.7529 17.7113C19.7875 16.9482 19.8757 16.1871 20.2514 15.5013C20.6207 14.8288 21.1809 14.7015 21.8272 15.1199C22.149 15.3313 22.42 15.5959 22.6765 15.879C23.3064 16.5664 23.9161 17.2784 24.5685 17.9433C25.3888 18.7785 26.3617 19.2706 27.5823 19.1703L32.3117 19.1723C33.0728 19.1208 33.4687 18.1877 33.0317 17.3356C32.7241 16.7408 32.3201 16.2116 31.8933 15.6982C30.9268 14.5372 29.7879 13.5477 28.7111 12.4975C27.7406 11.5499 27.679 10.9998 28.4586 9.90647C29.3119 8.71205 30.2269 7.56514 31.0867 6.37715C31.8888 5.2673 32.712 4.15905 33.132 2.83173C33.401 1.98444 33.163 1.61113 32.2976 1.46132C32.1478 1.43676 31.9919 1.43676 31.8401 1.43676L26.6939 1.43031C26.0601 1.42024 25.7113 1.69731 25.4874 2.25908C25.1838 3.01859 24.8721 3.77769 24.5105 4.5082C23.6942 6.17016 22.7808 7.77656 21.5006 9.13489C21.2175 9.4341 20.9034 9.81385 20.4319 9.658C19.8431 9.44255 19.6687 8.47042 19.6788 8.14222L19.6744 2.2019C19.56 1.35501 19.3707 0.975254 18.5279 0.810547H13.1827C12.4712 0.810547 12.1119 1.08801 11.7302 1.533C11.5127 1.79194 11.4447 1.95786 11.8965 2.04404C12.7824 2.21196 13.2854 2.78663 13.4167 3.6754C13.6281 5.09735 13.6136 6.52495 13.4908 7.95093C13.4558 8.36733 13.3841 8.78212 13.2194 9.17194C12.9613 9.78526 12.5424 9.90849 11.9948 9.53115C11.5006 9.19046 11.1519 8.71043 10.8088 8.2284C9.52657 6.41622 8.5049 4.46349 7.66969 2.4113C7.42968 1.81812 7.01328 1.45931 6.38546 1.44884C4.84229 1.42427 3.29751 1.42065 1.75233 1.45085C0.824894 1.46736 0.547832 1.91879 0.927584 2.76206C2.60808 6.5024 4.47945 10.138 6.92307 13.4499V13.4499Z" fill="#4F4F4F"/>
</svg>
