<svg width="33" height="19" viewBox="0 0 33 19" fill="none" xmlns="http://www.w3.org/2000/svg">
<path d="M6.83307 13.2655C8.06839 14.9393 9.48784 16.4194 11.3216 17.4667C13.3982 18.6536 15.6339 19.0115 17.9918 18.9024C19.0934 18.8496 19.4248 18.5623 19.4756 17.4647C19.5097 16.7127 19.5966 15.9627 19.9668 15.2869C20.3307 14.6242 20.8827 14.4988 21.5196 14.9111C21.8367 15.1194 22.1037 15.3802 22.3565 15.6591C22.9772 16.3365 23.578 17.0381 24.2208 17.6933C25.0291 18.5163 25.9879 19.0012 27.1907 18.9024L31.851 18.9044C32.601 18.8536 32.9911 17.9341 32.5605 17.0944C32.2573 16.5083 31.8593 15.9869 31.4387 15.4809C30.4863 14.3369 29.3641 13.3619 28.303 12.327C27.3466 11.3932 27.2859 10.8512 28.0542 9.77379C28.895 8.5968 29.7966 7.46664 30.6438 6.296C31.4343 5.20235 32.2454 4.11028 32.6593 2.80234C32.9244 1.96742 32.6899 1.59956 31.8371 1.45194C31.6895 1.42773 31.5359 1.42773 31.3863 1.42773L26.3153 1.42138C25.6907 1.41146 25.347 1.68448 25.1264 2.23805C24.8272 2.98647 24.52 3.73449 24.1637 4.45433C23.3593 6.09203 22.4593 7.67497 21.1978 9.01347C20.9188 9.30831 20.6093 9.68252 20.1446 9.52895C19.5645 9.31664 19.3926 8.3587 19.4025 8.03529L19.3982 2.1817C19.2855 1.34718 19.099 0.972971 18.2684 0.810669H13.0013C12.3001 0.810669 11.9462 1.08408 11.57 1.52258C11.3557 1.77773 11.2886 1.94123 11.7339 2.02615C12.6069 2.19162 13.1025 2.7579 13.2319 3.63369C13.4402 5.03489 13.4259 6.44164 13.3049 7.8468C13.2704 8.25712 13.1998 8.66585 13.0374 9.04998C12.7831 9.65434 12.3704 9.77577 11.8307 9.40395C11.3438 9.06823 11.0001 8.59521 10.662 8.12021C9.39855 6.33449 8.3918 4.41028 7.56878 2.38805C7.33228 1.80353 6.92196 1.44996 6.3033 1.43964C4.78267 1.41543 3.26044 1.41186 1.73782 1.44162C0.823926 1.45789 0.550909 1.90274 0.925116 2.73369C2.58107 6.41941 4.42513 10.002 6.83307 13.2655V13.2655Z" fill="#E9E9E9"/>
</svg>
