<svg width="30" height="30" viewBox="0 0 30 30" fill="none" xmlns="http://www.w3.org/2000/svg">
<path d="M15.0225 0.458008C7.02691 0.458008 0.521973 6.96294 0.521973 14.9586C0.521973 17.7445 1.31378 20.45 2.81159 22.7824L3.17156 23.3429L1.76119 28.3522L6.94385 27.0181L7.47838 27.3445C9.74441 28.7279 12.3532 29.4591 15.0225 29.4591C23.0181 29.4591 29.523 22.9542 29.523 14.9586C29.523 6.96294 23.0181 0.458008 15.0225 0.458008ZM23.9144 19.4152L23.7335 20.2603C23.5294 21.2137 22.9632 22.057 22.1417 22.5825C21.1046 23.2459 19.7603 23.5716 18.0516 23.0885C12.7488 21.589 9.7499 18.0782 8.14083 15.8839C6.53166 13.6896 5.91002 11.4953 6.31223 9.70337C6.58202 8.50157 7.46039 7.57942 8.00972 7.10228C8.27885 6.86859 8.62796 6.74966 8.98376 6.76908L10.1169 6.83085C10.34 6.84302 10.5369 6.98083 10.6248 7.18632L12.2754 11.0484C12.3636 11.2547 12.3264 11.4932 12.1797 11.663L10.7429 13.3251C10.6264 13.4599 10.6061 13.6519 10.6882 13.81C12.5805 17.4551 16.0293 18.8995 17.0588 19.2613C17.2342 19.323 17.4287 19.2647 17.5423 19.1174L19.0457 17.1684C19.2129 16.9516 19.5077 16.8792 19.7563 16.9939L23.5859 18.759C23.8355 18.8741 23.9719 19.1467 23.9144 19.4152Z" fill="#E9E9E9"/>
</svg>
